<mxfile host="app.diagrams.net" modified="2023-11-06T13:02:30.100Z" agent="Mozilla/5.0 (Macintosh; Intel Mac OS X 10_15_7) AppleWebKit/605.1.15 (KHTML, like Gecko) Version/15.5 Safari/605.1.15" etag="6escnBM8t710qiAtnAtO" version="22.0.8" type="device">
  <diagram name="Page-1" id="cC6jAxmoULVGqlBgAO_H">
    <mxGraphModel dx="1078" dy="571" grid="1" gridSize="10" guides="1" tooltips="1" connect="1" arrows="1" fold="1" page="1" pageScale="1" pageWidth="827" pageHeight="1169" math="0" shadow="0">
      <root>
        <mxCell id="0" />
        <mxCell id="1" parent="0" />
        <mxCell id="gWanNscbi8lL-Z1DqzpY-1" value="" style="ellipse;whiteSpace=wrap;html=1;aspect=fixed;" vertex="1" parent="1">
          <mxGeometry x="370" y="210" width="180" height="180" as="geometry" />
        </mxCell>
        <mxCell id="gWanNscbi8lL-Z1DqzpY-6" value="FILTER OPTIONS BASED ON CHARGER TYPE, POWER OUTPUT,&lt;br&gt;TARIFF AND CHARGING SPEED&amp;nbsp;" style="rounded=0;whiteSpace=wrap;html=1;" vertex="1" parent="1">
          <mxGeometry x="70" y="260" width="130" height="90" as="geometry" />
        </mxCell>
        <mxCell id="gWanNscbi8lL-Z1DqzpY-10" style="edgeStyle=orthogonalEdgeStyle;rounded=0;orthogonalLoop=1;jettySize=auto;html=1;exitX=0.5;exitY=1;exitDx=0;exitDy=0;entryX=0.5;entryY=0;entryDx=0;entryDy=0;" edge="1" parent="1" source="gWanNscbi8lL-Z1DqzpY-7" target="gWanNscbi8lL-Z1DqzpY-1">
          <mxGeometry relative="1" as="geometry" />
        </mxCell>
        <mxCell id="gWanNscbi8lL-Z1DqzpY-7" value="GEOLOCATION" style="rounded=0;whiteSpace=wrap;html=1;" vertex="1" parent="1">
          <mxGeometry x="400" y="30" width="120" height="60" as="geometry" />
        </mxCell>
        <mxCell id="gWanNscbi8lL-Z1DqzpY-8" value="USER REGISTRATION" style="rounded=0;whiteSpace=wrap;html=1;" vertex="1" parent="1">
          <mxGeometry x="690" y="290" width="120" height="60" as="geometry" />
        </mxCell>
        <mxCell id="gWanNscbi8lL-Z1DqzpY-12" style="edgeStyle=orthogonalEdgeStyle;rounded=0;orthogonalLoop=1;jettySize=auto;html=1;exitX=0.5;exitY=0;exitDx=0;exitDy=0;entryX=0.5;entryY=1;entryDx=0;entryDy=0;" edge="1" parent="1" source="gWanNscbi8lL-Z1DqzpY-9" target="gWanNscbi8lL-Z1DqzpY-1">
          <mxGeometry relative="1" as="geometry" />
        </mxCell>
        <mxCell id="gWanNscbi8lL-Z1DqzpY-9" value="INTERACTIVE MAPS FOR NAVIGATION" style="rounded=0;whiteSpace=wrap;html=1;" vertex="1" parent="1">
          <mxGeometry x="400" y="480" width="120" height="60" as="geometry" />
        </mxCell>
        <mxCell id="gWanNscbi8lL-Z1DqzpY-11" style="edgeStyle=orthogonalEdgeStyle;rounded=0;orthogonalLoop=1;jettySize=auto;html=1;exitX=0;exitY=0.5;exitDx=0;exitDy=0;entryX=1;entryY=0.611;entryDx=0;entryDy=0;entryPerimeter=0;" edge="1" parent="1" source="gWanNscbi8lL-Z1DqzpY-8" target="gWanNscbi8lL-Z1DqzpY-1">
          <mxGeometry relative="1" as="geometry" />
        </mxCell>
        <mxCell id="gWanNscbi8lL-Z1DqzpY-13" style="edgeStyle=orthogonalEdgeStyle;rounded=0;orthogonalLoop=1;jettySize=auto;html=1;exitX=1;exitY=0.5;exitDx=0;exitDy=0;entryX=0.006;entryY=0.611;entryDx=0;entryDy=0;entryPerimeter=0;" edge="1" parent="1" source="gWanNscbi8lL-Z1DqzpY-6" target="gWanNscbi8lL-Z1DqzpY-1">
          <mxGeometry relative="1" as="geometry" />
        </mxCell>
        <mxCell id="gWanNscbi8lL-Z1DqzpY-15" style="edgeStyle=orthogonalEdgeStyle;rounded=0;orthogonalLoop=1;jettySize=auto;html=1;entryX=0;entryY=1;entryDx=0;entryDy=0;" edge="1" parent="1" source="gWanNscbi8lL-Z1DqzpY-14" target="gWanNscbi8lL-Z1DqzpY-1">
          <mxGeometry relative="1" as="geometry" />
        </mxCell>
        <mxCell id="gWanNscbi8lL-Z1DqzpY-14" value="Actor" style="shape=umlActor;verticalLabelPosition=bottom;verticalAlign=top;html=1;outlineConnect=0;" vertex="1" parent="1">
          <mxGeometry x="160" y="420" width="50" height="60" as="geometry" />
        </mxCell>
      </root>
    </mxGraphModel>
  </diagram>
</mxfile>
